<svg t="1684644452190" class="icon" viewBox="0 0 1024 1024" version="1.1" xmlns="http://www.w3.org/2000/svg" p-id="15726" width="200" height="200"><path d="M787.692308 157.538462a78.769231 78.769231 0 0 1 78.76923 78.76923v551.384616a78.769231 78.769231 0 0 1-78.76923 78.76923H236.307692a78.769231 78.769231 0 0 1-78.76923-78.76923V236.307692a78.769231 78.769231 0 0 1 78.76923-78.76923h551.384616z m0 39.384615H236.307692a39.384615 39.384615 0 0 0-39.108923 34.776615L196.923077 236.307692v551.384616a39.384615 39.384615 0 0 0 34.776615 39.108923L236.307692 827.076923h551.384616a39.384615 39.384615 0 0 0 39.108923-34.776615L827.076923 787.692308V236.307692a39.384615 39.384615 0 0 0-34.776615-39.108923L787.692308 196.923077zM368.403692 414.326154l2.756923 2.244923 141.036308 141.036308 140.878769-140.839385a19.692308 19.692308 0 0 1 25.127385-2.284308l2.756923 2.284308a19.692308 19.692308 0 0 1 2.244923 25.088l-2.244923 2.756923-154.820923 154.781539a19.692308 19.692308 0 0 1-25.127385 2.284307l-2.756923-2.244923-154.978461-155.017846a19.692308 19.692308 0 0 1 25.127384-30.129231z" fill="#1296db" p-id="15727"></path></svg>