<svg t="1684492973577" class="icon" viewBox="0 0 1024 1024" version="1.1" xmlns="http://www.w3.org/2000/svg" p-id="6052" width="200" height="200"><path d="M848.0256 652.5952h-79.872v-79.872a46.08 46.08 0 0 0-92.16 0v79.872h-79.872a46.08 46.08 0 0 0 0 92.16h79.872v79.872a46.08 46.08 0 0 0 92.16 0v-79.872h79.872a46.08 46.08 0 0 0 0-92.16z" fill="#F33B3D" p-id="6053"></path><path d="M842.3936 572.7744v5.632h5.632c10.8032 0 21.2992 1.4848 31.2832 4.1472l10.6496-10.6496-72.9088-72.9088c15.872 20.3776 25.344 45.9776 25.344 73.7792zM601.7536 824.6272v-5.632h-5.632c-66.3552 0-120.32-53.9648-120.32-120.32s53.9648-120.32 120.32-120.32h5.632v-5.632c0-66.3552 53.9648-120.32 120.32-120.32 27.8016 0 53.3504 9.472 73.728 25.344L500.736 182.6816c-103.2192-103.2192-270.5408-103.2192-373.76 0l-5.5296 5.5296c-103.2192 103.2192-103.2192 270.5408 0 373.76l312.0128 312.0128c42.6496 42.6496 111.8208 42.6496 154.4704 0l18.0736-18.0736c-2.7648-9.984-4.2496-20.48-4.2496-31.2832z" fill="#F85F69" p-id="6054"></path><path d="M601.7536 824.6272v-5.632h-5.632c-66.3552 0-120.32-53.9648-120.32-120.32s53.9648-120.32 120.32-120.32h5.632v-5.632c0-66.3552 53.9648-120.32 120.32-120.32s120.32 53.9648 120.32 120.32v5.632h5.632c10.8032 0 21.2992 1.4848 31.2832 4.1472l20.5824-20.5824c103.2192-103.2192 103.2192-270.5408 0-373.76l-5.5296-5.5296c-103.2192-103.2192-270.5408-103.2192-373.76 0l-389.0688 389.0688 302.08 302.08c42.6496 42.6496 111.8208 42.6496 154.4704 0l17.8688-17.8688c-2.7136-9.984-4.1984-20.48-4.1984-31.2832z" fill="#F85F69" p-id="6055"></path><path d="M842.3936 572.7744v5.632h5.632c10.8032 0 21.2992 1.4848 31.2832 4.1472l10.6496-10.6496-72.9088-72.9088c15.872 20.4288 25.344 45.9776 25.344 73.7792zM601.7536 824.6272v-5.632h-5.632c-66.3552 0-120.32-53.9648-120.32-120.32s53.9648-120.32 120.32-120.32h5.632v-5.632c0-66.3552 53.9648-120.32 120.32-120.32 27.7504 0 53.3504 9.472 73.728 25.344l-285.184-285.184-379.0848 379.0848 298.6496 298.6496c44.4928 44.4928 116.6336 44.544 161.1776 0.1024l14.5408-14.5408c-2.6624-9.9328-4.1472-20.4288-4.1472-31.232z" fill="#F33B3D" p-id="6056"></path><path d="M273.4592 544.6144c-8.3968 0-16.896-2.7648-23.9616-8.448-117.9648-94.4128-101.888-192.1024-73.7792-234.9056 11.6224-17.7152 35.4304-22.6816 53.1456-11.0592 17.7152 11.6224 22.6816 35.4304 11.0592 53.1456-3.7888 5.9392-33.9456 59.5968 57.5488 132.864a38.39488 38.39488 0 0 1 5.9392 53.9648 38.17472 38.17472 0 0 1-29.952 14.4384z" fill="#F7F8F8" p-id="6057"></path><path d="M848.0256 652.5952h-38.8096l-133.2224 133.2224v38.8096a46.08 46.08 0 0 0 92.16 0v-79.872h79.872a46.08 46.08 0 0 0 0-92.16z" fill="#F85F69" p-id="6058"></path></svg>