<svg t="1684494947760" class="icon" viewBox="0 0 1024 1024" version="1.1" xmlns="http://www.w3.org/2000/svg" p-id="4026" width="200" height="200"><path d="M870 196c0-28.2-22.8-51-51-51H198c-28.2 0-51 22.8-51 51v604c0 28.2 22.8 51 51 51h621c28.2 0 51-22.8 51-51V196zM316 764.5L249.5 698H316v66.5zM798 470H388v-85h410v85zM316 606.2L251.8 542H316v64.2zM219 626v-66l65.9 66H219z m0-221l64.9 65H219v-65z m97-20v66.2L249.8 385H316z m232-72v-96h88v96h-88z m-72 0h-88v-96h88v96z m-160-20.1L240.6 217H316v75.9zM285.2 313H219v-66.3l66.2 66.3zM388 542h410v84H388v-84z m410-229h-90v-96h90v96zM219 718.3l60.9 60.7H219v-60.7zM388 779v-81h410v81H388z" p-id="4027" fill="#515151"></path></svg>