<svg t="1684493071077" class="icon" viewBox="0 0 1024 1024" version="1.1" xmlns="http://www.w3.org/2000/svg" p-id="7733" width="200" height="200"><path d="M64 512c0 160.055 85.388 307.952 224 387.98 138.612 80.027 309.388 80.027 448 0C874.612 819.951 960 672.054 960 512c0-247.424-200.576-448-448-448S64 264.576 64 512z" fill="#E78AF2" p-id="7734"></path><path d="M691.2 736H332.8c-56 0-100.8-44.8-100.8-99.4v-245c0-57.4 44.8-103.6 100.8-103.6h358.4c56 0 100.8 46.2 100.8 103.6v245c0 54.6-44.8 99.4-100.8 99.4m-16.8-317.8c-4.2-8.4-12.6-12.6-21-12.6-4.2 0-8.4 1.4-12.6 2.8l-133 81.2-120.4-81.2c-4.2-2.8-9.8-2.8-14-2.8-9.8 0-19.6 4.2-23.8 12.6-8.4 11.2-2.8 26.6 9.8 33.6L491 537.2c4.2 2.8 8.4 2.8 12.6 2.8h8.4c4.2 0 8.4-1.4 12.6-2.8l140-85.4c12.6-7 16.8-21 9.8-33.6" fill="#F9EFFF" p-id="7735"></path></svg>