<svg t="1684496076389" class="icon" viewBox="0 0 1039 1024" version="1.1" xmlns="http://www.w3.org/2000/svg" p-id="7053" width="200" height="200"><path d="M732.806026 950.719397h-462.824858c-84.851224 0-154.274953-71.352166-154.274953-156.203389v-474.395481c0-86.779661 69.423729-156.20339 154.274953-156.20339h15.427495v77.137477h-15.427495c-42.425612 0-77.137476 36.640301-77.137477 79.065913V794.516008c0 44.354049 34.711864 79.065913 77.137477 79.065913h462.824858c42.425612 0 77.137476-36.640301 77.137477-79.065913v-474.395481c0-44.354049-34.711864-79.065913-77.137477-79.065913h-42.425612v-77.137477h42.425612c84.851224 0 154.274953 71.352166 154.274953 156.20339V794.516008c0 84.851224-69.423729 156.20339-154.274953 156.203389z" fill="#388CEB" p-id="7054"></path><path d="M626.741996 312.40678h-250.696798c-57.853107 0-106.06403-42.425612-106.06403-94.493409v-48.210923c0-52.067797 48.210923-94.493409 106.06403-94.493408h250.696798c57.853107 0 106.06403 42.425612 106.06403 94.493408v48.210923c0 52.067797-48.210923 94.493409-106.06403 94.493409z m-250.696798-158.131827c-17.355932 0-28.926554 9.642185-28.926554 17.355932v48.210923c0 7.713748 11.570621 17.355932 28.926554 17.355932h250.696798c17.355932 0 28.926554-9.642185 28.926554-17.355932v-48.210923c0-7.713748-11.570621-17.355932-28.926554-17.355932h-250.696798z" fill="#388CEB" p-id="7055"></path><path d="M705.80791 482.109228H289.265537c-21.212806 0-38.568738-17.355932-38.568739-38.568738s17.355932-38.568738 38.568739-38.568739h416.542373c21.212806 0 38.568738 17.355932 38.568738 38.568739s-17.355932 38.568738-38.568738 38.568738zM705.80791 617.099812H289.265537c-21.212806 0-38.568738-17.355932-38.568739-38.568739s17.355932-38.568738 38.568739-38.568738h416.542373c21.212806 0 38.568738 17.355932 38.568738 38.568738s-17.355932 38.568738-38.568738 38.568739zM520.677966 752.090395h-231.412429c-21.212806 0-38.568738-17.355932-38.568739-38.568738s17.355932-38.568738 38.568739-38.568738h231.412429c21.212806 0 38.568738 17.355932 38.568738 38.568738s-17.355932 38.568738-38.568738 38.568738z" fill="#E78E00" p-id="7056"></path></svg>